<svg aria-hidden="true" style="position: absolute; width: 0; height: 0; overflow: hidden;" version="1.1"
  xmlns="http://www.w3.org/2000/svg" xmlns:xlink="http://www.w3.org/1999/xlink">
  <defs>
    <symbol id="logo-dark" viewBox="0 0 98 32">
      <path fill="#f6f6f6" style="fill: var(--color1, #f6f6f6)"
        d="M0 1.714l14.592 14.439 13.98 14.133v-28.571h-28.571z"></path>
      <path fill="#f6f6f6" style="fill: var(--color1, #f6f6f6)"
        d="M3.98 5.49l10.663 10.561 10.051 10.255h-20.714v-20.816z"></path>
      <path fill="#4f2ee8" style="fill: var(--color2, #4f2ee8)"
        d="M24.762 26.373l-10.663-10.561-10.051-10.255h20.714v20.816z"></path>
      <path fill="#4f2ee8" style="fill: var(--color2, #4f2ee8)" d="M8.265 9.776l12.143 12.143h-12.143v-12.143z"></path>
      <path fill="#f6f6f6" style="fill: var(--color1, #f6f6f6)" d="M8.265 9.776l12.143 12.143v-12.143h-12.143z"></path>
      <path fill="#f3f3f3" style="fill: var(--color3, #f3f3f3)"
        d="M52.391 11.076c0-3.061-2.315-4.791-6.317-4.791h-8.36v19.029h8.822c4.030 0 6.617-1.89 6.617-5.562 0-2.848-1.743-4.312-3.785-4.658v-0.053c1.607-0.532 3.023-1.623 3.023-3.966zM40.955 14.164v-5.19h5.201c1.933 0 2.995 0.931 2.995 2.608s-0.871 2.582-3.186 2.582h-5.010zM40.955 16.532h5.691c2.042 0 3.268 1.091 3.268 3.034 0 1.783-0.844 3.061-3.621 3.061h-5.337v-6.095z">
      </path>
      <path fill="#f3f3f3" style="fill: var(--color3, #f3f3f3)"
        d="M61.467 25.714c-4.357 0-6.998-2.954-6.998-7.186s2.641-7.186 6.998-7.186 6.998 2.954 6.998 7.186c0 4.232-2.641 7.186-6.998 7.186zM61.467 23.425c2.723 0 4.139-2.103 4.139-4.897 0-2.821-1.416-4.897-4.139-4.897s-4.139 2.076-4.139 4.897c0 2.794 1.416 4.897 4.139 4.897z">
      </path>
      <path fill="#f3f3f3" style="fill: var(--color3, #f3f3f3)"
        d="M76.704 25.714c-4.357 0-6.998-2.954-6.998-7.186s2.641-7.186 6.998-7.186c4.357 0 6.998 2.954 6.998 7.186s-2.641 7.186-6.998 7.186zM76.704 23.425c2.723 0 4.139-2.103 4.139-4.897 0-2.821-1.416-4.897-4.139-4.897s-4.139 2.076-4.139 4.897c0 2.794 1.416 4.897 4.139 4.897z">
      </path>
      <path fill="#f3f3f3" style="fill: var(--color3, #f3f3f3)"
        d="M85.678 6.286v19.029h2.859v-4.924l1.933-1.783 4.384 6.707h3.431l-5.854-8.543 5.283-5.057h-3.513l-5.664 5.456v-10.885h-2.859z">
      </path>
    </symbol>
    <symbol id="logo-light" viewBox="0 0 98 32">
      <path fill="#f6f6f6" style="fill: var(--color1, #f6f6f6)"
        d="M0 1.714l14.592 14.439 13.98 14.133v-28.571h-28.571z"></path>
      <path fill="#f6f6f6" style="fill: var(--color1, #f6f6f6)"
        d="M3.98 5.49l10.663 10.561 10.051 10.255h-20.714v-20.816z"></path>
      <path fill="#4f2ee8" style="fill: var(--color2, #4f2ee8)"
        d="M24.762 26.373l-10.663-10.561-10.051-10.255h20.714v20.816z"></path>
      <path fill="#4f2ee8" style="fill: var(--color2, #4f2ee8)" d="M8.265 9.776l12.143 12.143h-12.143v-12.143z"></path>
      <path fill="#f6f6f6" style="fill: var(--color1, #f6f6f6)" d="M8.265 9.776l12.143 12.143v-12.143h-12.143z"></path>
      <path fill="#000" style="fill: var(--color4, #000)"
        d="M52.391 11.076c0-3.061-2.315-4.791-6.317-4.791h-8.36v19.029h8.822c4.030 0 6.617-1.89 6.617-5.562 0-2.848-1.743-4.312-3.785-4.658v-0.053c1.607-0.532 3.023-1.623 3.023-3.966zM40.955 14.164v-5.19h5.201c1.933 0 2.995 0.931 2.995 2.608s-0.871 2.582-3.186 2.582h-5.010zM40.955 16.532h5.691c2.042 0 3.268 1.091 3.268 3.034 0 1.783-0.844 3.061-3.621 3.061h-5.337v-6.095z">
      </path>
      <path fill="#000" style="fill: var(--color4, #000)"
        d="M61.467 25.714c-4.357 0-6.998-2.954-6.998-7.186s2.641-7.186 6.998-7.186 6.998 2.954 6.998 7.186c0 4.232-2.641 7.186-6.998 7.186zM61.467 23.425c2.723 0 4.139-2.103 4.139-4.897 0-2.821-1.416-4.897-4.139-4.897s-4.139 2.076-4.139 4.897c0 2.794 1.416 4.897 4.139 4.897z">
      </path>
      <path fill="#000" style="fill: var(--color4, #000)"
        d="M76.704 25.714c-4.357 0-6.998-2.954-6.998-7.186s2.641-7.186 6.998-7.186c4.357 0 6.998 2.954 6.998 7.186s-2.641 7.186-6.998 7.186zM76.704 23.425c2.723 0 4.139-2.103 4.139-4.897 0-2.821-1.416-4.897-4.139-4.897s-4.139 2.076-4.139 4.897c0 2.794 1.416 4.897 4.139 4.897z">
      </path>
      <path fill="#000" style="fill: var(--color4, #000)"
        d="M85.678 6.286v19.029h2.859v-4.924l1.933-1.783 4.384 6.707h3.431l-5.854-8.543 5.283-5.057h-3.513l-5.664 5.456v-10.885h-2.859z">
      </path>
    </symbol>
    <symbol id="burger" viewBox="0 0 32 32">
      <path stroke-linejoin="round" stroke-linecap="round" stroke-miterlimit="4" stroke-width="2.2857"
        d="M22.667 13.333h-18.667"></path>
      <path stroke-linejoin="round" stroke-linecap="round" stroke-miterlimit="4" stroke-width="2.2857" d="M28 8h-24">
      </path>
      <path stroke-linejoin="round" stroke-linecap="round" stroke-miterlimit="4" stroke-width="2.2857"
        d="M28 18.667h-24"></path>
      <path stroke-linejoin="round" stroke-linecap="round" stroke-miterlimit="4" stroke-width="2.2857"
        d="M22.667 24h-18.667"></path>
    </symbol>
    <symbol id="close-btn" viewBox="0 0 32 32">
      <path stroke-linejoin="round" stroke-linecap="round" stroke-miterlimit="4" stroke-width="3.4286"
        d="M24 8l-16 16M8 8l16 16"></path>
    </symbol>
    <symbol id="pass" viewBox="0 0 32 32" fill-opacity="0">
      <path stroke-linejoin="round" stroke-linecap="round" stroke-miterlimit="4" stroke-width="2.2857"
        d="M22.667 14.667v-4c0-3.682-2.985-6.667-6.667-6.667s-6.667 2.985-6.667 6.667v4M10.4 28h11.2c2.24 0 3.36 0 4.216-0.436 0.753-0.383 1.365-0.995 1.748-1.748 0.436-0.856 0.436-1.976 0.436-4.216v-0.533c0-2.24 0-3.36-0.436-4.216-0.383-0.753-0.995-1.365-1.748-1.748-0.856-0.436-1.976-0.436-4.216-0.436h-11.2c-2.24 0-3.36 0-4.216 0.436-0.753 0.384-1.365 0.995-1.748 1.748-0.436 0.856-0.436 1.976-0.436 4.216v0.533c0 2.24 0 3.36 0.436 4.216 0.383 0.753 0.995 1.365 1.748 1.748 0.856 0.436 1.976 0.436 4.216 0.436z">
      </path>
    </symbol>
    <symbol id="cart" viewBox="0 0 32 32">
      <path
        d="M25.333 9.333h-4v-1.333c0-1.415-0.562-2.771-1.562-3.771s-2.357-1.562-3.771-1.562c-1.414 0-2.771 0.562-3.771 1.562s-1.562 2.357-1.562 3.771v1.333h-4c-0.354 0-0.693 0.14-0.943 0.391s-0.391 0.589-0.391 0.943v14.667c0 1.061 0.421 2.078 1.172 2.828s1.768 1.172 2.828 1.172h13.333c1.061 0 2.078-0.421 2.828-1.172s1.172-1.768 1.172-2.828v-14.667c0-0.354-0.14-0.693-0.391-0.943s-0.589-0.391-0.943-0.391zM13.333 8c0-0.707 0.281-1.386 0.781-1.886s1.178-0.781 1.886-0.781c0.707 0 1.385 0.281 1.886 0.781s0.781 1.178 0.781 1.886v1.333h-5.333v-1.333zM24 25.333c0 0.354-0.14 0.693-0.391 0.943s-0.589 0.391-0.943 0.391h-13.333c-0.354 0-0.693-0.14-0.943-0.391s-0.391-0.589-0.391-0.943v-13.333h2.667v1.333c0 0.354 0.14 0.693 0.391 0.943s0.589 0.391 0.943 0.391c0.354 0 0.693-0.14 0.943-0.391s0.391-0.589 0.391-0.943v-1.333h5.333v1.333c0 0.354 0.14 0.693 0.39 0.943s0.589 0.391 0.943 0.391 0.693-0.14 0.943-0.391c0.25-0.25 0.391-0.589 0.391-0.943v-1.333h2.667v13.333z">
      </path>
    </symbol>
    <symbol id="mail" viewBox="0 0 32 32" fill-opacity="0">
      <path stroke-linejoin="round" stroke-linecap="round" stroke-miterlimit="4" stroke-width="2.2857"
        d="M28.666 24l-8.857-8M12.19 16l-8.857 8M2.667 9.333l10.887 7.621c0.882 0.617 1.322 0.926 1.802 1.045 0.423 0.106 0.866 0.106 1.29 0 0.479-0.12 0.92-0.428 1.802-1.045l10.887-7.621M9.067 26.667h13.867c2.24 0 3.36 0 4.216-0.436 0.753-0.384 1.365-0.995 1.748-1.748 0.436-0.856 0.436-1.976 0.436-4.216v-8.533c0-2.24 0-3.36-0.436-4.216-0.383-0.753-0.995-1.365-1.748-1.748-0.856-0.436-1.976-0.436-4.216-0.436h-13.867c-2.24 0-3.36 0-4.216 0.436-0.753 0.383-1.365 0.995-1.748 1.748-0.436 0.856-0.436 1.976-0.436 4.216v8.533c0 2.24 0 3.36 0.436 4.216 0.384 0.753 0.995 1.365 1.748 1.748 0.856 0.436 1.976 0.436 4.216 0.436z">
      </path>
    </symbol>
    <symbol id="book" viewBox="0 0 35 32">
      <path fill="#4f2ee8" style="fill: var(--color2, #4f2ee8)"
        d="M34.352 7.713c-0.752-0.394-1.536-0.722-2.352-1.001v19.742c-1.824-0.673-3.696-1.017-5.6-1.017-3.040 0-6.048 0.886-8.8 2.593v-19.856c-2.592-1.526-5.584-2.429-8.8-2.429-2.864 0-5.568 0.722-7.952 1.969-0.528 0.263-0.848 0.837-0.848 1.444v19.824c0 0.952 0.752 1.625 1.6 1.625 0.256 0 0.512-0.066 0.768-0.197 1.936-1.034 4.112-1.69 6.432-1.69 3.312 0 6.368 1.346 8.8 3.282 2.432-1.936 5.488-3.282 8.8-3.282 2.32 0 4.496 0.656 6.432 1.707 0.256 0.131 0.512 0.197 0.768 0.197 0.832 0 1.6-0.673 1.6-1.625v-19.84c0-0.607-0.32-1.182-0.848-1.444zM14.4 26.453c-1.824-0.673-3.696-1.017-5.6-1.017s-3.776 0.345-5.6 1.017v-16.263c1.776-0.771 3.648-1.165 5.6-1.165 1.92 0 3.824 0.41 5.6 1.182v16.246zM28.8 0l-8 8.205v15.59l8-7.385v-16.41z">
      </path>
    </symbol>
    <symbol id="scroll-up-arrow" viewBox="0 0 32 32">
      <path style="fill: var(--color1, #4f2ee8)" opacity="0.3"
        d="M32 16c0 8.837-7.163 16-16 16s-16-7.163-16-16c0-8.837 7.163-16 16-16s16 7.163 16 16z">
      </path>
      <path fill="#4f2ee8" style="fill: var(--color1, #4f2ee8)"
        d="M29.5 16c0 7.456-6.044 13.5-13.5 13.5s-13.5-6.044-13.5-13.5c0-7.456 6.044-13.5 13.5-13.5s13.5 6.044 13.5 13.5z">
      </path>
      <path fill="#fff" style="fill: var(--color2, #fff)"
        d="M11.687 17.35l4.2-4.213c0.050-0.050 0.104-0.085 0.162-0.106s0.121-0.031 0.188-0.031c0.067 0 0.129 0.011 0.188 0.031s0.113 0.056 0.163 0.106l4.212 4.213c0.117 0.117 0.175 0.262 0.175 0.438s-0.063 0.325-0.188 0.45c-0.125 0.125-0.271 0.188-0.438 0.188s-0.313-0.063-0.438-0.188l-3.675-3.675-3.675 3.675c-0.117 0.117-0.26 0.175-0.431 0.175s-0.319-0.063-0.444-0.188-0.188-0.271-0.188-0.438c0-0.167 0.063-0.313 0.188-0.438z">
      </path>
    </symbol>
    <symbol id="sup-trident" viewBox="0 0 20 32">
      <path fill="#fff" style="fill: var(--color5, #fff)"
        d="M9.005 30.888c-1.738-1.262-2.991-3.156-3.414-5.351h-5.591v-23.117c2.991 1.443 5.153 4.599 5.388 7.876l0.846 6.493-0.407-0.045c-0.893 0-1.676 0.812-1.676 1.608 0 0.752 0.595 1.383 1.378 1.548l1.018 0.226c1.676-3.051 2.631-6.042 2.631-8.973 0-2.645-0.36-5.291-0.423-7.996 0-1.202 0.486-2.3 1.253-3.156 0.783 0.857 1.253 1.954 1.253 3.156 0 2.705-0.423 5.351-0.423 7.996 0 2.931 0.955 5.922 2.631 8.973l1.018-0.226c0.783-0.165 1.378-0.812 1.378-1.548 0-0.812-0.783-1.608-1.676-1.608l-0.423 0.060 0.846-6.493c0.423-3.277 2.396-6.448 5.388-7.876v23.117h-5.576c-0.423 2.179-1.613 4.148-3.414 5.351-0.423 0.286-0.783 0.631-1.018 1.097-0.219-0.466-0.579-0.812-0.987-1.112zM2.647 17.556c0.235-0.857 0.893-1.608 1.738-2.074l-0.658-5.351c-0.235-1.668-0.955-3.156-2.036-4.374v11.784h0.955v0.015zM5.466 23.929c0-0.812 0.125-1.548 0.298-2.3l-0.783-0.18c-1.143-0.346-2.036-1.203-2.334-2.3h-0.955v4.78h3.774zM9.178 23.929c0-0.977-0.783-1.834-1.801-1.954-0.172 0.631-0.298 1.263-0.298 1.954h2.099zM9.178 25.552h-1.864c0.298 1.263 0.955 2.42 1.864 3.397v-3.397zM11.809 20.547c-0.72-1.262-1.378-2.585-1.801-3.968-0.423 1.383-1.081 2.706-1.801 3.968 0.72 0.165 1.316 0.631 1.801 1.157 0.486-0.526 1.081-0.992 1.801-1.157zM12.952 23.929c0-0.691-0.125-1.323-0.297-1.954-1.018 0.12-1.801 0.977-1.801 1.954h2.099zM12.717 25.552h-1.864v3.397c0.908-0.992 1.566-2.134 1.864-3.397zM18.34 23.929v-4.78h-0.955c-0.298 1.097-1.206 1.954-2.334 2.3l-0.783 0.18c0.172 0.752 0.298 1.488 0.298 2.3h3.774zM18.34 17.556v-11.799c-1.081 1.202-1.864 2.706-2.036 4.374l-0.658 5.351c0.846 0.466 1.504 1.203 1.739 2.074h0.955z">
      </path>
    </symbol>
    <symbol id="sup-arrow" viewBox="0 0 32 32">
      <path fill="#4f2ee8" style="fill: var(--color2, #4f2ee8)"
        d="M15.053 17.867c0.124 0.125 0.271 0.224 0.434 0.292s0.337 0.103 0.513 0.103 0.35-0.035 0.513-0.103c0.162-0.068 0.31-0.167 0.434-0.292l6.107-6.12c0.124-0.125 0.271-0.224 0.434-0.292s0.337-0.103 0.513-0.103c0.176 0 0.35 0.035 0.513 0.103s0.31 0.167 0.434 0.292c0.248 0.25 0.388 0.588 0.388 0.94s-0.139 0.69-0.388 0.94l-6.12 6.12c-0.75 0.749-1.767 1.17-2.827 1.17s-2.077-0.421-2.827-1.17l-6.12-6.12c-0.246-0.248-0.385-0.584-0.387-0.933-0.001-0.175 0.033-0.349 0.099-0.512s0.164-0.31 0.288-0.435c0.124-0.125 0.271-0.224 0.434-0.292s0.337-0.103 0.513-0.103c0.176 0 0.35 0.035 0.513 0.103s0.31 0.167 0.434 0.292l6.107 6.12z">
      </path>
    </symbol>
    <symbol id="golder-arrow-right" viewBox="0 0 32 32">
      <path fill="none" stroke="#eac645" style="stroke: var(--color6, #eac645)" stroke-linejoin="round"
        stroke-linecap="round" stroke-miterlimit="4" stroke-width="3.2"
        d="M5.333 16h21.333M26.667 16l-8-8M26.667 16l-8 8"></path>
    </symbol>
    <symbol id="delete-book" viewBox="0 0 32 32">
      <path fill="#4f2ee8" style="fill: var(--color2, #4f2ee8)"
        d="M32 16c0 8.837-7.163 16-16 16s-16-7.163-16-16c0-8.837 7.163-16 16-16s16 7.163 16 16z"></path>
      <path fill="none" stroke="#fff" style="stroke: var(--color5, #fff)" stroke-linejoin="round" stroke-linecap="round"
        stroke-miterlimit="4" stroke-width="1.6842"
        d="M13.684 9.053h4.632M9.053 11.368h13.895M21.404 11.368l-0.541 8.12c-0.081 1.218-0.122 1.827-0.385 2.289-0.232 0.407-0.581 0.733-1.002 0.938-0.478 0.232-1.089 0.232-2.31 0.232h-2.33c-1.221 0-1.832 0-2.31-0.232-0.421-0.204-0.771-0.531-1.002-0.938-0.263-0.462-0.304-1.071-0.385-2.289l-0.541-8.12M14.456 14.842v3.86M17.544 14.842v3.86">
      </path>
    </symbol>
    <symbol id="user-ico" viewBox="0 0 32 32">
      <path fill="#f6f6f6" style="fill: var(--color1, #f6f6f6)"
        d="M32 16c0 8.837-7.163 16-16 16s-16-7.163-16-16c0-8.837 7.163-16 16-16s16 7.163 16 16z"></path>
      <path fill="#4f2ee8" style="fill: var(--color2, #4f2ee8)"
        d="M10.523 22.847c0-1.453 0.577-2.846 1.604-3.873s2.421-1.604 3.873-1.604 2.846 0.577 3.873 1.604c1.027 1.027 1.604 2.421 1.604 3.873h-10.955zM16 16.685c-2.27 0-4.108-1.838-4.108-4.108s1.838-4.108 4.108-4.108c2.27 0 4.108 1.838 4.108 4.108s-1.838 4.108-4.108 4.108z">
      </path>
    </symbol>
    <symbol id="user-caret-down" viewBox="0 0 28 32">
      <path fill="#fff" style="fill: var(--color5, #fff)"
        d="M5.897 12h16.513l-7.423 8.391c-0.221 0.25-0.521 0.39-0.834 0.39s-0.613-0.14-0.834-0.39l-7.423-8.391z"></path>
    </symbol>
  </defs>
</svg>